<svg width="25" height="25" viewBox="0 0 25 25" fill="none" xmlns="http://www.w3.org/2000/svg">
<path d="M14.6471 6.32056C14.4924 6.06963 14.2443 5.89045 13.9574 5.82241C13.6705 5.75438 13.3683 5.80307 13.1173 5.95778C12.8663 6.11249 12.687 6.36054 12.619 6.64737C12.5509 6.93419 12.5997 7.2363 12.7544 7.48722C12.9508 7.80426 13.1601 8.11648 13.3824 8.42389C13.468 8.54208 13.5761 8.64224 13.7005 8.71866C13.8249 8.79507 13.9632 8.84625 14.1073 8.86926C14.2515 8.89226 14.3988 8.88666 14.5408 8.85275C14.6828 8.81885 14.8168 8.75732 14.935 8.67167C15.0532 8.58602 15.1534 8.47793 15.2298 8.35357C15.3063 8.22921 15.3575 8.09101 15.3805 7.94687C15.4035 7.80274 15.3979 7.65548 15.364 7.51351C15.3301 7.37154 15.2685 7.23764 15.1828 7.11945C14.9924 6.85796 14.8139 6.59167 14.6471 6.32056ZM11.613 16.5672C11.5263 16.4498 11.4173 16.3507 11.2923 16.2754C11.1672 16.2001 11.0286 16.1502 10.8843 16.1285C10.7399 16.1067 10.5928 16.1137 10.4511 16.1488C10.3094 16.184 10.1761 16.2467 10.0587 16.3333C9.94125 16.42 9.84206 16.5289 9.76676 16.6539C9.69145 16.7789 9.64151 16.9175 9.61979 17.0618C9.59806 17.2061 9.60498 17.3533 9.64014 17.4949C9.6753 17.6365 9.73802 17.7698 9.82472 17.8872C10.0129 18.1428 10.1893 18.4054 10.3538 18.675C10.4302 18.7994 10.5303 18.9075 10.6485 18.9932C10.7667 19.0789 10.9007 19.1405 11.0427 19.1744C11.1847 19.2084 11.332 19.214 11.4762 19.191C11.6204 19.1681 11.7586 19.1169 11.8831 19.0406C12.0075 18.9642 12.1156 18.864 12.2014 18.7459C12.2871 18.6277 12.3487 18.4938 12.3826 18.3518C12.4166 18.2098 12.4222 18.0626 12.3992 17.9184C12.3763 17.7743 12.3251 17.6361 12.2487 17.5117C12.0509 17.1887 11.839 16.8739 11.613 16.5672ZM7.49298 12.7572C7.24187 12.6086 6.94238 12.5647 6.65917 12.635C6.37596 12.7053 6.13176 12.884 5.97927 13.1328C5.82679 13.3815 5.77827 13.6802 5.84417 13.9644C5.91008 14.2485 6.08514 14.4954 6.33155 14.6517C6.60125 14.8168 6.8654 14.9943 7.12399 15.1839C7.24199 15.2698 7.37577 15.3317 7.51769 15.366C7.65961 15.4002 7.80688 15.4062 7.95111 15.3835C8.09534 15.3609 8.23369 15.3101 8.35827 15.234C8.48285 15.1579 8.59122 15.058 8.67719 14.94C8.76315 14.822 8.82503 14.6883 8.8593 14.5464C8.89356 14.4045 8.89954 14.2573 8.87689 14.1131C8.85423 13.9689 8.80339 13.8306 8.72727 13.706C8.65115 13.5815 8.55123 13.4732 8.43323 13.3872C8.12648 13.1635 7.81306 12.9535 7.49298 12.7572ZM18.6738 10.3494C18.4041 10.1835 18.1392 10.0057 17.8791 9.81611C17.6407 9.64254 17.343 9.57079 17.0516 9.61663C16.7602 9.66247 16.499 9.82216 16.3254 10.0606C16.1518 10.299 16.08 10.5965 16.1258 10.8878C16.1717 11.1792 16.3314 11.4403 16.5699 11.6139C16.8774 11.8376 17.1912 12.0476 17.5112 12.2439C17.6357 12.3203 17.7739 12.3714 17.9181 12.3944C18.0623 12.4173 18.2096 12.4117 18.3516 12.3778C18.4936 12.3438 18.6276 12.2822 18.7458 12.1965C18.864 12.1109 18.9641 12.0027 19.0406 11.8783C19.117 11.7539 19.1681 11.6157 19.1911 11.4716C19.2141 11.3274 19.2084 11.1802 19.1745 11.0382C19.1405 10.8962 19.0789 10.7623 18.9932 10.6441C18.9075 10.526 18.7982 10.4258 18.6738 10.3494ZM20.2831 4.72167C18.7443 3.18334 16.7838 2.13573 14.6494 1.71133C12.515 1.28693 10.3027 1.5048 8.29222 2.33737C6.28171 3.16995 4.56331 4.57985 3.35431 6.38878C2.1453 8.19771 1.5 10.3244 1.5 12.5C1.5 14.6756 2.1453 16.8023 3.35431 18.6112C4.56331 20.4202 6.28171 21.83 8.29222 22.6626C10.3027 23.4952 12.515 23.7131 14.6494 23.2887C16.7838 22.8643 18.7443 21.8167 20.2831 20.2783C22.3431 18.2135 23.5 15.4163 23.5 12.5C23.5 9.58371 22.3431 6.78646 20.2831 4.72167ZM18.8683 18.8639C17.5109 20.2241 15.7506 21.1098 13.8491 21.3894C13.7534 21.2106 13.6091 21.0625 13.4329 20.962C13.2567 20.8615 13.0557 20.8127 12.8531 20.8213C12.6504 20.8299 12.4542 20.8955 12.2872 21.0105C12.1201 21.1256 11.9889 21.2854 11.9086 21.4717C9.73323 21.3341 7.68264 20.4083 6.14103 18.8678C4.59942 17.3272 3.67257 15.2775 3.53412 13.1028C3.71899 13.0209 3.87727 12.889 3.99107 12.722C4.10487 12.5549 4.16965 12.3594 4.17809 12.1574C4.18653 11.9555 4.13829 11.7552 4.03883 11.5792C3.93937 11.4033 3.79265 11.2586 3.61526 11.1617C3.89308 9.2604 4.77667 7.49935 6.13491 6.13989C7.49314 4.78042 9.25363 3.89499 11.1551 3.615C11.252 3.78204 11.3909 3.92092 11.5579 4.01795C11.7249 4.11498 11.9144 4.16681 12.1076 4.16834C12.1936 4.16863 12.2794 4.15894 12.3632 4.13945C12.523 4.10014 12.6718 4.02513 12.7985 3.92005C12.9252 3.81498 13.0264 3.68257 13.0945 3.53278C15.272 3.66831 17.3251 4.59424 18.8678 6.13656C20.4106 7.67887 21.3368 9.73138 21.4723 11.9083C21.2881 11.9899 21.1304 12.1212 21.017 12.2876C20.9035 12.454 20.8389 12.6488 20.8303 12.85C20.8218 13.0512 20.8696 13.2508 20.9686 13.4262C21.0675 13.6016 21.2135 13.7459 21.3901 13.8428C21.1105 15.744 20.2269 17.5046 18.8683 18.8639Z" fill="#9DA5B3"/>
</svg>
