<svg width="25" height="25" viewBox="0 0 25 25" fill="none" xmlns="http://www.w3.org/2000/svg">
<path d="M9.5 20.5H6.5C5.43913 20.5 4.42172 20.0786 3.67157 19.3284C2.92143 18.5783 2.5 17.5609 2.5 16.5V7.5C2.5 6.43913 2.92143 5.42172 3.67157 4.67157C4.42172 3.92143 5.43913 3.5 6.5 3.5H17.5C18.5609 3.5 19.5783 3.92143 20.3284 4.67157C21.0786 5.42172 21.5 6.43913 21.5 7.5V10.5M8.5 2.5V4.5M15.5 2.5V4.5M2.5 8.5H21.5M19 16.143L17.5 17.643" stroke="#9DA5B3" stroke-width="2" stroke-linecap="round" stroke-linejoin="round"/>
<path d="M17.5 22.5C20.2614 22.5 22.5 20.2614 22.5 17.5C22.5 14.7386 20.2614 12.5 17.5 12.5C14.7386 12.5 12.5 14.7386 12.5 17.5C12.5 20.2614 14.7386 22.5 17.5 22.5Z" stroke="#9DA5B3" stroke-width="2" stroke-linecap="round" stroke-linejoin="round"/>
</svg>
