<svg width="22" height="22" viewBox="0 0 22 22" fill="none" xmlns="http://www.w3.org/2000/svg">
<path d="M15.2083 2.97217C15.7053 2.97217 16.1991 3.06223 16.6672 3.23779L16.8665 3.31885C17.3269 3.51889 17.752 3.80064 18.1223 4.15283L18.2786 4.30908C19.9782 6.08724 20.1383 9.15163 17.8938 11.5474L10.9993 18.7583L4.10571 11.5474C1.93131 9.22636 2.01385 6.27754 3.56665 4.479L3.72095 4.30908L3.8772 4.15283C4.19476 3.8508 4.5529 3.60107 4.93872 3.40967L5.13306 3.31885C5.65937 3.09023 6.22311 2.97217 6.79126 2.97217C7.28846 2.97218 7.78202 3.06213 8.25024 3.23779L8.44849 3.31885C8.90914 3.51894 9.33485 3.80046 9.70532 4.15283L9.8606 4.30811L10.5637 5.05322C10.6771 5.17334 10.8351 5.2417 11.0002 5.2417C11.1653 5.24161 11.3235 5.17326 11.4368 5.05322L12.1399 4.30811C12.4942 3.93618 12.9059 3.63289 13.3557 3.40967L13.551 3.31885C14.0772 3.09029 14.6402 2.97223 15.2083 2.97217Z" stroke="#F7F8FB" stroke-width="1.2" stroke-linecap="round" stroke-linejoin="round"/>
</svg>
