<svg width="22" height="22" viewBox="0 0 22 22" fill="none" xmlns="http://www.w3.org/2000/svg">
<path d="M18.7122 3.89437C18.2526 3.41201 17.7066 3.02928 17.1054 2.76813C16.5042 2.50699 15.8597 2.37256 15.2087 2.37256C14.5577 2.37256 13.9131 2.50699 13.3119 2.76813C12.7107 3.02928 12.1647 3.41201 11.7052 3.89437L10.9999 4.64174L10.2946 3.89437C9.83513 3.41201 9.28912 3.02928 8.68791 2.76813C8.08671 2.50699 7.44213 2.37256 6.79116 2.37256C6.14018 2.37256 5.49561 2.50699 4.89441 2.76813C4.2932 3.02928 3.74719 3.41201 3.28768 3.89437C1.34588 5.92569 1.2268 9.35592 3.67237 11.9621L10.9999 19.6275L18.3275 11.9621C20.773 9.35592 20.654 5.92569 18.7122 3.89437Z" fill="#EB4144"/>
</svg>
