<svg width="25" height="25" viewBox="0 0 25 25" fill="none" xmlns="http://www.w3.org/2000/svg">
<path d="M20.5001 10.4998C20.5001 10.2346 20.3947 9.98022 20.2072 9.79268C20.0197 9.60514 19.7653 9.49979 19.5001 9.49979C19.2349 9.49979 18.9805 9.60514 18.793 9.79268C18.6054 9.98022 18.5001 10.2346 18.5001 10.4998H20.5001ZM6.50008 10.4998C6.50008 10.2346 6.39472 9.98022 6.20719 9.79268C6.01965 9.60514 5.7653 9.49979 5.50008 9.49979C5.23486 9.49979 4.98051 9.60514 4.79297 9.79268C4.60544 9.98022 4.50008 10.2346 4.50008 10.4998H6.50008ZM20.7931 13.2068C20.9817 13.3889 21.2343 13.4897 21.4965 13.4875C21.7587 13.4852 22.0095 13.38 22.1949 13.1946C22.3803 13.0092 22.4855 12.7584 22.4878 12.4962C22.49 12.234 22.3892 11.9814 22.2071 11.7928L20.7931 13.2068ZM12.5001 3.49979L13.2071 2.79279C13.0196 2.60532 12.7652 2.5 12.5001 2.5C12.2349 2.5 11.9806 2.60532 11.7931 2.79279L12.5001 3.49979ZM2.79308 11.7928C2.69757 11.885 2.62139 11.9954 2.56898 12.1174C2.51657 12.2394 2.48898 12.3706 2.48783 12.5034C2.48668 12.6362 2.51198 12.7678 2.56226 12.8907C2.61254 13.0136 2.68679 13.1253 2.78069 13.2192C2.87458 13.3131 2.98623 13.3873 3.10913 13.4376C3.23202 13.4879 3.3637 13.5132 3.49648 13.512C3.62926 13.5109 3.76048 13.4833 3.88249 13.4309C4.00449 13.3785 4.11483 13.3023 4.20708 13.2068L2.79308 11.7928ZM7.50008 22.4998H17.5001V20.4998H7.50008V22.4998ZM20.5001 19.4998V10.4998H18.5001V19.4998H20.5001ZM6.50008 19.4998V10.4998H4.50008V19.4998H6.50008ZM22.2071 11.7928L13.2071 2.79279L11.7931 4.20679L20.7931 13.2068L22.2071 11.7928ZM11.7931 2.79279L2.79308 11.7928L4.20708 13.2068L13.2071 4.20679L11.7931 2.79279ZM17.5001 22.4998C18.2957 22.4998 19.0588 22.1837 19.6214 21.6211C20.184 21.0585 20.5001 20.2954 20.5001 19.4998H18.5001C18.5001 19.765 18.3947 20.0194 18.2072 20.2069C18.0197 20.3944 17.7653 20.4998 17.5001 20.4998V22.4998ZM7.50008 20.4998C7.23486 20.4998 6.98051 20.3944 6.79297 20.2069C6.60544 20.0194 6.50008 19.765 6.50008 19.4998H4.50008C4.50008 20.2954 4.81615 21.0585 5.37876 21.6211C5.94137 22.1837 6.70443 22.4998 7.50008 22.4998V20.4998Z" fill="#100F21"/>
</svg>
