<svg width="57" height="69" viewBox="0 0 57 69" fill="none" xmlns="http://www.w3.org/2000/svg">
<path d="M55.9383 34.7769C55.8732 34.3327 55.6314 33.0419 54.7012 31.8119C51.5107 27.5702 44.139 29.179 43.4181 29.3474C39.4462 30.2687 37.0185 32.5041 36.8417 32.2609C36.3999 31.6436 55.3105 21.3129 55.036 9.0975C55.0174 8.22764 54.943 5.01946 52.8176 2.93368C47.9574 -1.82246 36.5069 3.49956 33.1675 5.04752C10.4153 15.5746 1.32746 40.3375 1.02515 50.6448C0.95539 53.0018 0.806566 58.1274 4.10405 62.0885C5.0947 63.2764 6.33648 64.3193 8.55961 65.437C16.5499 69.4636 29.9165 67.5415 29.9165 67.5415C41.5764 66.059 44.4739 62.7012 45.2273 61.6442C45.6226 61.0924 46.5854 59.7409 46.5156 57.931C46.4319 55.7844 44.939 54.3066 44.6087 53.9839C40.8787 50.294 33.2326 52.2021 33.1954 51.8514C33.1536 51.4632 42.7158 51.047 49.3945 45.884C50.3805 45.1217 56.7383 40.1878 55.929 34.7676L55.9383 34.7769Z" fill="#E6EAF2" stroke="#D7DCE7" stroke-width="2" stroke-miterlimit="10" stroke-linejoin="bevel"/>
</svg>
